<?xml version="1.0" encoding="UTF-8"?>
<svg width="1200pt" height="1200pt" version="1.1" viewBox="0 0 1200 1200" xmlns="http://www.w3.org/2000/svg">
 <path d="m527.93 785.43 75.988 31.668-109.79 93.746zm509.59-431.29-162.68 433.59c-11.691 23.625-18.309 44.133-25.707 51.945-3.6914 4.0273-6.6914 5.9609-14.266 7.293-7.4531 1.2383-20.215 0.76172-38.879-4.0938l-236.51-98.801zm-94.188-61.387-593.89 363.38-206.91-90.148c-7.375-4.3594-11.148-8.8008-12.52-11.852-1.4648-3.1992-1.5352-5.0547-0.14844-8.8008 2.8516-7.4922 17.281-22.934 51.707-32.094 0.1875 0 0.33203-0.066406 0.54688-0.066406l743.87-215.43zm172.48-101.65h-1.0391c-3.0547 0.21484-6.0391 0.90625-8.8281 2.1484l-194.09 56.199-743.4 215.24c-0.066406 0-0.066406 0.066406-0.12109 0.066406l-0.42578 0.066406c-43.613 11.773-74.121 32.84-85.465 62.973-5.6523 15.188-5.1602 32.508 1.5195 47.133 6.6797 14.691 18.668 26.387 33.641 34.988 0.83984 0.49219 1.6797 0.89453 2.5586 1.2539l210.76 91.879 48.348 148.77c4.0273 13.586 18.535 21.281 32.094 16.906 13.52-4.4414 20.762-19.055 15.961-32.426l-45.707-140.8 631.58-386.46-518.21 422.64c-0.14844 0.12109-0.21484 0.19922-0.34766 0.33203-5.7852 4.4414-9.2656 11.227-9.625 18.492l-60.961 226.04c-6.3984 23.906 22.027 41.652 40.879 25.641l0.70703-0.55859c0.14844-0.12109 0.28125-0.26563 0.41406-0.41406l189.99-162.29 123.03 51.359c1.0391 0.48047 2.0781 0.83984 3.1484 1.1055 23.668 6.3203 43.387 8.1719 61.012 5.1992 17.625-2.9727 32.652-11.691 42.84-22.574 20.414-21.762 25.625-47.039 34.48-64.719 0.35938-0.82812 0.70703-1.6016 0.98828-2.5078l216.97-578.19v-0.14844c3.4414-6.2266 3.9883-13.641 1.6133-20.359-0.83984-2.3594-2.0273-4.6406-3.5469-6.6523-0.28125-0.35938-0.57422-0.69141-0.85156-1.0547-0.21484-0.33203-0.46484-0.61328-0.76172-0.87891-0.28125-0.34766-0.625-0.69141-0.96094-0.97266-0.28125-0.28125-0.57422-0.54688-0.78516-0.83984-0.33203-0.28125-0.70703-0.54688-1.1211-0.82813-4.5781-3.8125-10.352-5.8242-16.285-5.7578z"/>
</svg>
